<?xml version="1.0" standalone="no"?><!DOCTYPE svg PUBLIC "-//W3C//DTD SVG 1.1//EN" "http://www.w3.org/Graphics/SVG/1.1/DTD/svg11.dtd"><svg t="1724504601164" class="icon" viewBox="0 0 1024 1024" version="1.1" xmlns="http://www.w3.org/2000/svg" p-id="5113" width="200" height="200" xmlns:xlink="http://www.w3.org/1999/xlink"><path d="M80 422.4l844.8-352c9.6-3.2 19.2-3.2 28.8 3.2 6.4 9.6 9.6 19.2 6.4 28.8l-211.2 841.6c-3.2 9.6-9.6 16-16 19.2-9.6 3.2-19.2 0-25.6-3.2l-182.4-153.6c-9.6-9.6-25.6-6.4-35.2 3.2l-92.8 92.8c-6.4 6.4-19.2 9.6-28.8 6.4-9.6-3.2-16-12.8-16-25.6v-198.4c0-6.4 3.2-12.8 6.4-19.2L739.2 284.8l-448 336c-9.6 6.4-22.4 6.4-32 0l-182.4-153.6c-9.6-6.4-12.8-12.8-12.8-22.4 3.2-9.6 9.6-16 16-22.4z" fill="#27c732" p-id="5114"></path></svg>